<svg width="24" height="24" viewBox="0 0 24 24" fill="none" xmlns="http://www.w3.org/2000/svg">
<path d="M18.9999 10.5H10.2069L12.6459 8.06099C12.9273 7.77973 13.0855 7.39821 13.0856 7.00035C13.0856 6.60249 12.9277 6.22089 12.6464 5.93949C12.3652 5.6581 11.9836 5.49996 11.5858 5.49987C11.1879 5.49977 10.8063 5.65773 10.5249 5.93899L6.93893 9.52499C6.2837 10.182 5.91574 11.0721 5.91574 12C5.91574 12.9279 6.2837 13.818 6.93893 14.475L10.5249 18.061C10.8063 18.3423 11.1879 18.5002 11.5858 18.5001C11.9836 18.5 12.3652 18.3419 12.6464 18.0605C12.9277 17.7791 13.0856 17.3975 13.0856 16.9996C13.0855 16.6018 12.9273 16.2203 12.6459 15.939L10.2069 13.5H18.9999C19.3978 13.5 19.7793 13.342 20.0606 13.0607C20.3419 12.7793 20.4999 12.3978 20.4999 12C20.4999 11.6022 20.3419 11.2206 20.0606 10.9393C19.7793 10.658 19.3978 10.5 18.9999 10.5Z" fill="#EBCB95"/>
</svg>
